<?xml version="1.0" standalone="no"?>
<!DOCTYPE svg PUBLIC "-//W3C//DTD SVG 20010904//EN"
 "http://www.w3.org/TR/2001/REC-SVG-20010904/DTD/svg10.dtd">
<svg version="1.0" xmlns="http://www.w3.org/2000/svg"
 width="700.000000pt" height="700.000000pt" viewBox="0 0 700.000000 700.000000"
 preserveAspectRatio="xMidYMid meet">
<metadata>
Created by potrace 1.11, written by Peter Selinger 2001-2013
</metadata>
<g transform="translate(0.000000,700.000000) scale(0.100000,-0.100000)"
fill="#000000" stroke="none">
<path d="M6056 6923 c-2 -2 -382 -6 -1690 -17 l-269 -3 -606 -611 c-333 -335
-1103 -1111 -1711 -1722 -608 -611 -1106 -1118 -1108 -1126 -2 -8 8 -38 21
-66 14 -29 55 -120 92 -203 37 -82 83 -183 101 -223 19 -41 34 -75 34 -77 0
-1 20 -45 44 -96 24 -52 83 -182 131 -289 48 -107 97 -217 110 -245 13 -27 65
-142 115 -255 51 -113 105 -234 122 -270 17 -36 47 -103 68 -150 65 -146 370
-821 406 -898 19 -41 34 -75 34 -77 0 -2 20 -45 43 -97 24 -51 61 -131 82
-178 21 -47 54 -121 75 -165 l37 -80 919 1 c505 1 920 2 920 3 1 0 -182 185
-407 410 l-409 408 92 91 c51 49 127 123 169 164 175 169 532 514 615 596 50
48 199 193 333 322 269 260 298 288 661 640 139 135 273 265 299 289 25 24
163 158 306 297 143 138 304 295 358 347 54 52 95 97 90 100 -4 3 -64 8 -133
12 -160 9 -183 11 -310 19 -297 20 -483 31 -635 41 -49 3 -117 7 -150 10 -64
5 -179 12 -310 20 -44 3 -111 7 -150 10 -38 3 -110 7 -160 10 -49 3 -130 8
-178 11 l-89 5 -86 -89 c-48 -50 -243 -249 -433 -444 -191 -194 -398 -406
-460 -470 -202 -207 -833 -851 -863 -880 l-29 -28 114 -116 c63 -63 114 -116
114 -117 0 -1 -271 268 -603 599 -331 331 -602 604 -602 607 0 5 65 -58 418
-405 l183 -181 2270 2269 c1248 1248 2274 2276 2278 2284 8 13 -8 15 -126 15
-74 0 -136 -1 -137 -2z m-5091 -3773 c10 -11 16 -20 13 -20 -3 0 -13 9 -23 20
-10 11 -16 20 -13 20 3 0 13 -9 23 -20z m55 -55 c13 -14 21 -25 18 -25 -2 0
-15 11 -28 25 -13 14 -21 25 -18 25 2 0 15 -11 28 -25z m83 -81 c37 -44 30
-44 -13 1 -19 19 -30 35 -24 34 5 0 22 -16 37 -35z m57 -54 c0 -5 -2 -10 -4
-10 -3 0 -8 5 -11 10 -3 6 -1 10 4 10 6 0 11 -4 11 -10z m1270 -1275 c19 -19
32 -35 29 -35 -3 0 -20 16 -39 35 -19 19 -32 35 -29 35 3 0 20 -16 39 -35z
m61 -62 c13 -16 12 -17 -3 -4 -17 13 -22 21 -14 21 2 0 10 -8 17 -17z m49 -48
c13 -14 21 -25 18 -25 -2 0 -15 11 -28 25 -13 14 -21 25 -18 25 2 0 15 -11 28
-25z m60 -60 c13 -14 21 -25 18 -25 -2 0 -15 11 -28 25 -13 14 -21 25 -18 25
2 0 15 -11 28 -25z m81 -82 c13 -16 12 -17 -3 -4 -17 13 -22 21 -14 21 2 0 10
-8 17 -17z m40 -40 c13 -16 12 -17 -3 -4 -10 7 -18 15 -18 17 0 8 8 3 21 -13z
m40 -40 c13 -16 12 -17 -3 -4 -17 13 -22 21 -14 21 2 0 10 -8 17 -17z"/>
</g>
</svg>
