<?xml version="1.0" standalone="no"?>
<!DOCTYPE svg PUBLIC "-//W3C//DTD SVG 20010904//EN"
 "http://www.w3.org/TR/2001/REC-SVG-20010904/DTD/svg10.dtd">
<svg version="1.0" xmlns="http://www.w3.org/2000/svg"
 width="693.000000pt" height="693.000000pt" viewBox="0 0 693.000000 693.000000"
 preserveAspectRatio="xMidYMid meet">
<metadata>
Created by potrace 1.11, written by Peter Selinger 2001-2013
</metadata>
<g transform="translate(0.000000,693.000000) scale(0.100000,-0.100000)"
fill="#000000" stroke="none">
<path d="M4188 6921 c-7 -2 -815 -804 -1795 -1784 l-1781 -1780 13 -36 c8 -20
89 -245 181 -501 91 -256 228 -638 304 -850 76 -212 264 -736 418 -1165 l279
-780 1067 -1 c586 -1 1066 1 1066 5 0 3 -186 192 -412 418 l-413 413 1483
1483 c815 815 1482 1485 1482 1488 0 3 -479 5 -1065 5 l-1066 -1 -947 -948
c-521 -521 -952 -947 -957 -947 -6 0 -89 79 -185 175 l-175 175 2313 2313
c1271 1271 2312 2314 2312 2317 0 6 -2103 7 -2122 1z"/>
</g>
</svg>
