<?xml version="1.0" encoding="UTF-8" standalone="no"?>
<!DOCTYPE svg PUBLIC "-//W3C//DTD SVG 1.1//EN" "http://www.w3.org/Graphics/SVG/1.1/DTD/svg11.dtd">
<svg width="100%" height="100%" viewBox="0 0 573 693" version="1.1" xmlns="http://www.w3.org/2000/svg" xmlns:xlink="http://www.w3.org/1999/xlink" xml:space="preserve" xmlns:serif="http://www.serif.com/" style="fill-rule:evenodd;clip-rule:evenodd;stroke-linejoin:round;stroke-miterlimit:1.41421;">
    <g transform="matrix(1,0,0,1,-7274,-3711)">
        <g id="Page-6" serif:id="Page 6" transform="matrix(4.16667,0,0,4.16667,6000,3375)">
            <rect x="0" y="0" width="1280" height="720" style="fill:none;"/>
            <g id="Capa-1" serif:id="Capa 1">
                <g transform="matrix(-0.707115,0.707099,0.707099,0.707115,416.06,213.845)">
                    <path d="M-20.426,-62.795L44.17,-62.795L44.169,-26.571L-56.698,-26.573L-20.426,-62.795Z" style="fill:rgb(255,108,55);fill-rule:nonzero;"/>
                </g>
                <g transform="matrix(-0.707107,0.707107,0.707107,0.707107,401.686,187.798)">
                    <path d="M-68.526,-82.72L52.424,-82.72L52.424,-46.496L-104.797,-46.496L-68.526,-82.72Z" style="fill:rgb(245,168,0);fill-rule:nonzero;"/>
                </g>
                <g transform="matrix(0.24,-0,-0,0.24,305.76,80.64)">
                </g>
                <g transform="matrix(0.24,-0,-0,0.24,305.76,80.64)">
                </g>
                <g transform="matrix(1,0,0,1,306.126,246.325)">
                    <path d="M0,-79.949L79.948,0L28.667,0L0,-79.949Z" style="fill:rgb(87,87,86);fill-rule:nonzero;"/>
                </g>
            </g>
        </g>
    </g>
</svg>
